<svg width="1920" height="1080" viewBox="0 0 1920 1080" xmlns="http://www.w3.org/2000/svg"><rect width="1920" height="1080" fill="#ffc58f"/><path d="M 0,1080 C 0,1080 0,180 0,180 C 140.1128205128205,198.14358974358973 280.225641025641,216.28717948717946 377,209 C 473.774358974359,201.71282051282054 527.2102564102564,168.9948717948718 625,160 C 722.7897435897436,151.0051282051282 864.9333333333334,165.73333333333335 967,189 C 1069.0666666666666,212.26666666666665 1131.0564102564106,244.07179487179488 1222,231 C 1312.9435897435894,217.92820512820512 1432.8410256410255,159.97948717948717 1554,144 C 1675.1589743589745,128.02051282051283 1797.5794871794874,154.01025641025643 1920,180 C 1920,180 1920,1080 1920,1080 Z" fill="#ff7b00" opacity="0.09999999999999999"/><path d="M 0,1080 C 0,1080 0,360 0,360 C 85.0871794871795,393.3666666666667 170.174358974359,426.7333333333333 280,420 C 389.825641025641,413.2666666666667 524.3897435897436,366.43333333333334 646,339 C 767.6102564102564,311.56666666666666 876.2666666666667,303.5333333333333 982,327 C 1087.7333333333333,350.4666666666667 1190.5435897435898,405.43333333333334 1284,396 C 1377.4564102564102,386.56666666666666 1461.5589743589742,312.73333333333335 1566,296 C 1670.4410256410258,279.26666666666665 1795.2205128205128,319.6333333333333 1920,360 C 1920,360 1920,1080 1920,1080 Z" fill="#ff7b00" opacity="0.19999999999999998"/><path d="M 0,1080 C 0,1080 0,540 0,540 C 84.53333333333333,535.6871794871795 169.06666666666666,531.374358974359 266,526 C 362.93333333333334,520.625641025641 472.26666666666665,514.1897435897436 599,506 C 725.7333333333333,497.8102564102565 869.8666666666668,487.8666666666667 988,509 C 1106.1333333333332,530.1333333333333 1198.2666666666667,582.3435897435897 1307,582 C 1415.7333333333333,581.6564102564103 1541.0666666666666,528.7589743589745 1646,513 C 1750.9333333333334,497.2410256410256 1835.4666666666667,518.6205128205128 1920,540 C 1920,540 1920,1080 1920,1080 Z" fill="#ff7b00" opacity="0.3"/><path d="M 0,1080 C 0,1080 0,720 0,720 C 121.51538461538462,690.5128205128206 243.03076923076924,661.025641025641 333,659 C 422.96923076923076,656.974358974359 481.39230769230767,682.4102564102564 580,715 C 678.6076923076923,747.5897435897436 817.4000000000001,787.3333333333334 949,780 C 1080.6,772.6666666666666 1205.0076923076924,718.2564102564104 1301,708 C 1396.9923076923076,697.7435897435896 1464.5692307692307,731.6410256410256 1563,741 C 1661.4307692307693,750.3589743589744 1790.7153846153847,735.1794871794872 1920,720 C 1920,720 1920,1080 1920,1080 Z" fill="#ff7b00" opacity="0.39999999999999997"/><path d="M 0,1080 C 0,1080 0,900 0,900 C 84.5205128205128,914.374358974359 169.0410256410256,928.748717948718 275,940 C 380.9589743589744,951.251282051282 508.3564102564103,959.3794871794871 617,938 C 725.6435897435897,916.6205128205129 815.5333333333335,865.7333333333333 932,860 C 1048.4666666666665,854.2666666666667 1191.5102564102565,893.6871794871794 1313,898 C 1434.4897435897435,902.3128205128206 1534.425641025641,871.5179487179488 1632,866 C 1729.574358974359,860.4820512820512 1824.7871794871794,880.2410256410255 1920,900 C 1920,900 1920,1080 1920,1080 Z" fill="#ff7b00" opacity="0.49999999999999994"/></svg>